<svg width="811" height="274" viewBox="0 0 811 274" fill="none" xmlns="http://www.w3.org/2000/svg">
<rect width="811" height="274" fill="#FF4A4A"/>
<path d="M153.907 143.74C149.672 139.648 144.065 137.412 138.081 137.412C132.097 137.412 126.473 139.665 122.238 143.757L120.026 145.894L117.78 143.724C113.544 139.632 107.903 137.362 101.919 137.362C95.9524 137.362 90.3284 139.615 86.1105 143.69C81.8754 147.783 79.5435 153.216 79.5606 158.998C79.5606 164.78 81.9096 170.198 86.1448 174.29L118.345 205.403C118.791 205.833 119.391 206.065 119.974 206.065C120.557 206.065 121.157 205.85 121.603 205.419L153.872 174.356C158.107 170.264 160.439 164.83 160.439 159.048C160.457 153.266 158.142 147.832 153.907 143.74ZM150.615 171.192L119.974 200.681L89.4025 171.142C86.0419 167.895 84.1901 163.587 84.1901 158.998C84.1901 154.409 86.0247 150.102 89.3854 146.871C92.7289 143.641 97.1869 141.851 101.919 141.851C106.669 141.851 111.144 143.641 114.505 146.888L118.38 150.632C119.288 151.51 120.746 151.51 121.655 150.632L125.495 146.921C128.856 143.674 133.331 141.885 138.064 141.885C142.796 141.885 147.254 143.674 150.615 146.904C153.975 150.152 155.81 154.459 155.81 159.048C155.827 163.637 153.975 167.945 150.615 171.192Z" fill="#353B3C" stroke="#353B3C" stroke-width="5"/>
<path d="M181.364 112.646H167.727V83.2164C167.727 54.5226 146.591 31.7148 120 31.7148C93.4091 31.7148 72.2727 54.5226 72.2727 83.2164V112.646H58.6364V83.2164C58.6364 46.4295 85.9091 17 120 17C154.091 17 181.364 46.4295 181.364 83.2164V112.646Z" fill="#353B3C"/>
<path d="M174.545 237.721H65.4545C53.8636 237.721 45 228.157 45 215.649V127.361C45 114.853 53.8636 105.289 65.4545 105.289H174.545C186.136 105.289 195 114.853 195 127.361V215.649C195 228.157 186.136 237.721 174.545 237.721ZM65.4545 120.003C61.3636 120.003 58.6364 122.946 58.6364 127.361V215.649C58.6364 220.064 61.3636 223.007 65.4545 223.007H174.545C178.636 223.007 181.364 220.064 181.364 215.649V127.361C181.364 122.946 178.636 120.003 174.545 120.003H65.4545Z" fill="#353B3C"/>
<path d="M268.4 183.7C261.8 183.7 255.733 182.167 250.2 179.1C244.733 176.033 240.367 171.767 237.1 166.3C233.9 160.767 232.3 154.567 232.3 147.7C232.3 140.833 233.9 134.667 237.1 129.2C240.367 123.733 244.733 119.467 250.2 116.4C255.733 113.333 261.8 111.8 268.4 111.8C275 111.8 281.033 113.333 286.5 116.4C292.033 119.467 296.367 123.733 299.5 129.2C302.7 134.667 304.3 140.833 304.3 147.7C304.3 154.567 302.7 160.767 299.5 166.3C296.3 171.767 291.967 176.033 286.5 179.1C281.033 182.167 275 183.7 268.4 183.7ZM268.4 168.1C274 168.1 278.467 166.233 281.8 162.5C285.2 158.767 286.9 153.833 286.9 147.7C286.9 141.5 285.2 136.567 281.8 132.9C278.467 129.167 274 127.3 268.4 127.3C262.733 127.3 258.2 129.133 254.8 132.8C251.467 136.467 249.8 141.433 249.8 147.7C249.8 153.9 251.467 158.867 254.8 162.6C258.2 166.267 262.733 168.1 268.4 168.1ZM330.913 136.5C332.913 133.433 335.413 131.033 338.413 129.3C341.413 127.5 344.747 126.6 348.413 126.6V144.7H343.713C339.447 144.7 336.247 145.633 334.113 147.5C331.98 149.3 330.913 152.5 330.913 157.1V183H313.813V127.2H330.913V136.5ZM377.787 126.4C381.72 126.4 385.153 127.2 388.087 128.8C391.087 130.4 393.387 132.5 394.987 135.1V127.2H412.087V182.9C412.087 188.033 411.053 192.667 408.987 196.8C406.987 201 403.887 204.333 399.687 206.8C395.553 209.267 390.387 210.5 384.187 210.5C375.92 210.5 369.22 208.533 364.087 204.6C358.953 200.733 356.02 195.467 355.287 188.8H372.187C372.72 190.933 373.987 192.6 375.987 193.8C377.987 195.067 380.453 195.7 383.387 195.7C386.92 195.7 389.72 194.667 391.787 192.6C393.92 190.6 394.987 187.367 394.987 182.9V175C393.32 177.6 391.02 179.733 388.087 181.4C385.153 183 381.72 183.8 377.787 183.8C373.187 183.8 369.02 182.633 365.287 180.3C361.553 177.9 358.587 174.533 356.387 170.2C354.253 165.8 353.187 160.733 353.187 155C353.187 149.267 354.253 144.233 356.387 139.9C358.587 135.567 361.553 132.233 365.287 129.9C369.02 127.567 373.187 126.4 377.787 126.4ZM394.987 155.1C394.987 150.833 393.787 147.467 391.387 145C389.053 142.533 386.187 141.3 382.787 141.3C379.387 141.3 376.487 142.533 374.087 145C371.753 147.4 370.587 150.733 370.587 155C370.587 159.267 371.753 162.667 374.087 165.2C376.487 167.667 379.387 168.9 382.787 168.9C386.187 168.9 389.053 167.667 391.387 165.2C393.787 162.733 394.987 159.367 394.987 155.1ZM421.058 155C421.058 149.267 422.124 144.233 424.258 139.9C426.458 135.567 429.424 132.233 433.158 129.9C436.891 127.567 441.058 126.4 445.658 126.4C449.591 126.4 453.024 127.2 455.958 128.8C458.958 130.4 461.258 132.5 462.858 135.1V127.2H479.958V183H462.858V175.1C461.191 177.7 458.858 179.8 455.858 181.4C452.924 183 449.491 183.8 445.558 183.8C441.024 183.8 436.891 182.633 433.158 180.3C429.424 177.9 426.458 174.533 424.258 170.2C422.124 165.8 421.058 160.733 421.058 155ZM462.858 155.1C462.858 150.833 461.658 147.467 459.258 145C456.924 142.533 454.058 141.3 450.658 141.3C447.258 141.3 444.358 142.533 441.958 145C439.624 147.4 438.458 150.733 438.458 155C438.458 159.267 439.624 162.667 441.958 165.2C444.358 167.667 447.258 168.9 450.658 168.9C454.058 168.9 456.924 167.667 459.258 165.2C461.658 162.733 462.858 159.367 462.858 155.1ZM526.329 126.6C532.862 126.6 538.062 128.733 541.929 133C545.862 137.2 547.829 143 547.829 150.4V183H530.829V152.7C530.829 148.967 529.862 146.067 527.929 144C525.996 141.933 523.396 140.9 520.129 140.9C516.862 140.9 514.262 141.933 512.329 144C510.396 146.067 509.429 148.967 509.429 152.7V183H492.329V127.2H509.429V134.6C511.162 132.133 513.496 130.2 516.429 128.8C519.362 127.333 522.662 126.6 526.329 126.6ZM585.112 183.7C579.978 183.7 575.378 182.867 571.312 181.2C567.245 179.533 563.978 177.067 561.512 173.8C559.112 170.533 557.845 166.6 557.712 162H575.912C576.178 164.6 577.078 166.6 578.612 168C580.145 169.333 582.145 170 584.612 170C587.145 170 589.145 169.433 590.612 168.3C592.078 167.1 592.812 165.467 592.812 163.4C592.812 161.667 592.212 160.233 591.012 159.1C589.878 157.967 588.445 157.033 586.712 156.3C585.045 155.567 582.645 154.733 579.512 153.8C574.978 152.4 571.278 151 568.412 149.6C565.545 148.2 563.078 146.133 561.012 143.4C558.945 140.667 557.912 137.1 557.912 132.7C557.912 126.167 560.278 121.067 565.012 117.4C569.745 113.667 575.912 111.8 583.512 111.8C591.245 111.8 597.478 113.667 602.212 117.4C606.945 121.067 609.478 126.2 609.812 132.8H591.312C591.178 130.533 590.345 128.767 588.812 127.5C587.278 126.167 585.312 125.5 582.912 125.5C580.845 125.5 579.178 126.067 577.912 127.2C576.645 128.267 576.012 129.833 576.012 131.9C576.012 134.167 577.078 135.933 579.212 137.2C581.345 138.467 584.678 139.833 589.212 141.3C593.745 142.833 597.412 144.3 600.212 145.7C603.078 147.1 605.545 149.133 607.612 151.8C609.678 154.467 610.712 157.9 610.712 162.1C610.712 166.1 609.678 169.733 607.612 173C605.612 176.267 602.678 178.867 598.812 180.8C594.945 182.733 590.378 183.7 585.112 183.7ZM617.835 155C617.835 149.267 618.902 144.233 621.035 139.9C623.235 135.567 626.202 132.233 629.935 129.9C633.668 127.567 637.835 126.4 642.435 126.4C646.368 126.4 649.802 127.2 652.735 128.8C655.735 130.4 658.035 132.5 659.635 135.1V127.2H676.735V183H659.635V175.1C657.968 177.7 655.635 179.8 652.635 181.4C649.702 183 646.268 183.8 642.335 183.8C637.802 183.8 633.668 182.633 629.935 180.3C626.202 177.9 623.235 174.533 621.035 170.2C618.902 165.8 617.835 160.733 617.835 155ZM659.635 155.1C659.635 150.833 658.435 147.467 656.035 145C653.702 142.533 650.835 141.3 647.435 141.3C644.035 141.3 641.135 142.533 638.735 145C636.402 147.4 635.235 150.733 635.235 155C635.235 159.267 636.402 162.667 638.735 165.2C641.135 167.667 644.035 168.9 647.435 168.9C650.835 168.9 653.702 167.667 656.035 165.2C658.435 162.733 659.635 159.367 659.635 155.1ZM717.106 141.4H707.906V183H690.806V141.4H684.606V127.2H690.806V125.6C690.806 118.733 692.773 113.533 696.706 110C700.64 106.4 706.406 104.6 714.006 104.6C715.273 104.6 716.206 104.633 716.806 104.7V119.2C713.54 119 711.24 119.467 709.906 120.6C708.573 121.733 707.906 123.767 707.906 126.7V127.2H717.106V141.4ZM777.741 154.2C777.741 155.8 777.641 157.467 777.441 159.2H738.741C739.008 162.667 740.108 165.333 742.041 167.2C744.041 169 746.475 169.9 749.341 169.9C753.608 169.9 756.575 168.1 758.241 164.5H776.441C775.508 168.167 773.808 171.467 771.341 174.4C768.941 177.333 765.908 179.633 762.241 181.3C758.575 182.967 754.475 183.8 749.941 183.8C744.475 183.8 739.608 182.633 735.341 180.3C731.075 177.967 727.741 174.633 725.341 170.3C722.941 165.967 721.741 160.9 721.741 155.1C721.741 149.3 722.908 144.233 725.241 139.9C727.641 135.567 730.975 132.233 735.241 129.9C739.508 127.567 744.408 126.4 749.941 126.4C755.341 126.4 760.141 127.533 764.341 129.8C768.541 132.067 771.808 135.3 774.141 139.5C776.541 143.7 777.741 148.6 777.741 154.2ZM760.241 149.7C760.241 146.767 759.241 144.433 757.241 142.7C755.241 140.967 752.741 140.1 749.741 140.1C746.875 140.1 744.441 140.933 742.441 142.6C740.508 144.267 739.308 146.633 738.841 149.7H760.241Z" fill="#353B3C"/>
</svg>
