<svg width="265" height="265" viewBox="0 0 265 265" fill="none" xmlns="http://www.w3.org/2000/svg">
<rect width="265" height="265" fill="#FF4A4A"/>
<path d="M167.217 145.943C162.816 141.788 156.989 139.517 150.77 139.517C144.551 139.517 138.707 141.805 134.306 145.96L132.007 148.13L129.673 145.926C125.272 141.771 119.409 139.467 113.191 139.467C106.99 139.467 101.145 141.755 96.7619 145.893C92.3607 150.047 89.9373 155.565 89.9551 161.435C89.9551 167.306 92.3963 172.806 96.7975 176.961L130.261 208.551C130.724 208.988 131.348 209.224 131.954 209.224C132.559 209.224 133.183 209.005 133.646 208.568L167.181 177.028C171.582 172.873 174.006 167.356 174.006 161.486C174.023 155.615 171.618 150.098 167.217 145.943ZM163.796 173.815L131.954 203.757L100.183 173.765C96.6906 170.468 94.7662 166.095 94.7662 161.435C94.7662 156.776 96.6728 152.402 100.165 149.122C103.64 145.842 108.273 144.025 113.191 144.025C118.126 144.025 122.777 145.842 126.27 149.139L130.297 152.941C131.241 153.832 132.755 153.832 133.7 152.941L137.691 149.173C141.184 145.876 145.834 144.059 150.752 144.059C155.67 144.059 160.303 145.876 163.796 149.156C167.288 152.453 169.195 156.826 169.195 161.486C169.212 166.145 167.288 170.518 163.796 173.815Z" fill="#353B3C" stroke="#353B3C" stroke-width="5"/>
<path d="M195.75 114.372H181.579V84.4917C181.579 55.3582 159.614 32.2008 131.98 32.2008C104.347 32.2008 82.3815 55.3582 82.3815 84.4917V114.372H68.2103V84.4917C68.2103 47.1411 96.5526 17.2605 131.98 17.2605C167.408 17.2605 195.75 47.1411 195.75 84.4917V114.372Z" fill="#353B3C"/>
<path d="M188.665 241.365H75.2959C63.2504 241.365 54.0392 231.653 54.0392 218.954V129.313C54.0392 116.613 63.2504 106.902 75.2959 106.902H188.665C200.71 106.902 209.922 116.613 209.922 129.313V218.954C209.922 231.653 200.71 241.365 188.665 241.365ZM75.2959 121.842C71.0445 121.842 68.2103 124.83 68.2103 129.313V218.954C68.2103 223.436 71.0445 226.424 75.2959 226.424H188.665C192.916 226.424 195.75 223.436 195.75 218.954V129.313C195.75 124.83 192.916 121.842 188.665 121.842H75.2959Z" fill="#353B3C"/>
</svg>
